# xmcd
#
# Track frame offsets:
#	187
#	10992
#	22965
#	34887
#	55072
#	67935
#	80977
#	98912
#	106142
#	122487
#	138365
#	155430
#	164982
#	180472
#	189475
#
# Disc length: 2690 seconds
#
# Revision: 1
# Processed by: cddbd v1.5.1PL0 Copyright (c) Steve Scherf et al.
# Submitted via: CDex 1.50Beta5
#
DISCID=c30a800f
DTITLE=ナナ・ムスクーリ - NANA MOUSKOURI  SILENT NIGHT, HOLY NIGHT/聖しこの夜〜ナナ・ムスクーリ・クリスマス
DYEAR=1900
DGENRE=
TTITLE0=Silent Night, Holy Night /聖しこの夜  (C)
TTITLE1=樅の木  (C)
TTITLE2=Go Tell It On The Mountain /山で告げよ  (C)
TTITLE3=Amazing Grace /アメージング・グレース
TTITLE4=Old Toy Trains /オールド・トイ・トレイン  (C)
TTITLE5=Little Drummer Boy /リトル・ドラマー・ボーイ  (C)
TTITLE6=アヴェ・マリア(シューベルト)/Ave Maria(Schubert)
TTITLE7=Deck The Hall with Boughs of Holly /ホールをひいらぎで飾って  (C)
TTITLE8=サンタ・クロースの歌  (C)
TTITLE9=愛のハレルヤ  (C)
TTITLE10=真夜中のミサ  (C)
TTITLE11=神よ汝らを楽しく休ましめ給え  (C)
TTITLE12=Priere /祈り  (C)
TTITLE13=クリストス・ゲナート  (C)
TTITLE14=アヴェ・マリア(グノー)/Ave Maria(Gounod)
EXTD=
EXTT0=
EXTT1=
EXTT2=
EXTT3=
EXTT4=
EXTT5=
EXTT6=
EXTT7=
EXTT8=
EXTT9=
EXTT10=
EXTT11=
EXTT12=
EXTT13=
EXTT14=
PLAYORDER=
